<svg xmlns="http://www.w3.org/2000/svg" width="49.648" height="25.5" viewBox="0 0 49.648 25.5">
  <path id="Path_1283" data-name="Path 1283" d="M32.047,11.587,26,5.528c.114-.091.253-.185.373-.3.886-.836,1.708-1.751,2.66-2.5A12.74,12.74,0,1,1,39,25.309a12.325,12.325,0,0,1-11.115-3.547C23.844,17.785,19.86,13.75,15.845,9.745a4.3,4.3,0,1,0-.051,6.06c.56-.552,1.113-1.111,1.669-1.666.061-.061.127-.119.184-.173l5.95,5.959c0-.009,0,.012-.008.022A29.758,29.758,0,0,1,20.2,23.1,12.746,12.746,0,1,1,10.525.211a12.4,12.4,0,0,1,11.3,3.582c4.024,3.971,8,7.99,12,11.982a4.305,4.305,0,1,0,.063-6.114c-.567.557-1.127,1.122-1.686,1.687a1.463,1.463,0,0,0-.16.24" transform="translate(0 0.001)" fill="#fff"/>
</svg>
