<?xml version="1.0" encoding="utf-8"?>
<!-- Generator: Adobe Illustrator 25.0.1, SVG Export Plug-In . SVG Version: 6.00 Build 0)  -->
<svg version="1.1" id="Layer_1" xmlns="http://www.w3.org/2000/svg" xmlns:xlink="http://www.w3.org/1999/xlink" x="0px" y="0px"
	 viewBox="0 0 72 55.5" style="enable-background:new 0 0 72 55.5;" xml:space="preserve">
<style type="text/css">
	.st0{fill:#707070;}
</style>
<path class="st0" d="M65.3,0.8H6.8C3.1,0.8,0,3.8,0,7.5V48c0,3.7,3,6.8,6.8,6.8h58.5c3.7,0,6.8-3,6.8-6.8V7.5
	C72,3.8,69,0.8,65.3,0.8z M65.3,48H6.8V21.9c3.2,2.6,7.8,6.2,14.8,11.6C24.6,36,30,41.3,36,41.3c6,0,11.3-5.2,14.5-7.7
	c7-5.5,11.5-9.1,14.8-11.6V48z M65.3,13.3c-3.2,2.6-8.2,6.6-18.9,15c-2.4,1.9-7.1,6.3-10.3,6.3c-3.3,0.1-8-4.4-10.3-6.3
	C15,19.8,9.9,15.8,6.8,13.3V7.5h58.5V13.3z"/>
</svg>
